<svg width="397" height="298" viewBox="0 0 397 298" fill="none" xmlns="http://www.w3.org/2000/svg">
<path d="M9.92045 47L1.9517 17.9091H4.65057L11.2415 42.9233H11.4688L18.0597 17.9091H21.1278L27.7188 42.9233H27.946L34.5369 17.9091H37.25L29.2812 47H26.4403L19.6932 22.3267H19.5085L12.7614 47H9.92045ZM48.3153 47.4545C46.2794 47.4545 44.518 46.9811 43.0312 46.0341C41.5445 45.0777 40.3939 43.7566 39.5795 42.071C38.7746 40.3759 38.3722 38.4252 38.3722 36.2188C38.3722 34.0218 38.7746 32.071 39.5795 30.3665C40.3939 28.6525 41.5161 27.3125 42.946 26.3466C44.3854 25.3712 46.0473 24.8835 47.9318 24.8835C49.1155 24.8835 50.2566 25.1013 51.3551 25.5369C52.4536 25.9631 53.4384 26.6212 54.3097 27.5114C55.1903 28.392 55.8864 29.5047 56.3977 30.8494C56.9091 32.1847 57.1648 33.7661 57.1648 35.5938V36.8438H40.1193V34.6136H54.5795C54.5795 33.2121 54.2955 31.9527 53.7273 30.8352C53.1686 29.7083 52.3873 28.8182 51.3835 28.1648C50.3892 27.5114 49.2386 27.1847 47.9318 27.1847C46.5492 27.1847 45.3324 27.554 44.2812 28.2926C43.2301 29.0312 42.4063 30.0066 41.8097 31.2188C41.2225 32.4309 40.9242 33.7566 40.9148 35.196V36.5312C40.9148 38.2642 41.2131 39.7794 41.8097 41.0767C42.4157 42.3646 43.2727 43.3636 44.3807 44.0739C45.4886 44.7841 46.8002 45.1392 48.3153 45.1392C49.3475 45.1392 50.2519 44.9782 51.0284 44.6562C51.8144 44.3343 52.4725 43.9034 53.0028 43.3636C53.5426 42.8144 53.9498 42.2131 54.2244 41.5597L56.625 42.3409C56.2936 43.2595 55.7491 44.107 54.9915 44.8835C54.2434 45.66 53.3059 46.285 52.179 46.7585C51.0616 47.2225 49.7737 47.4545 48.3153 47.4545ZM65.2649 17.9091V47H62.7365V17.9091H65.2649ZM80.478 47.4545C78.5272 47.4545 76.8274 46.9669 75.3786 45.9915C73.9392 45.0161 72.8217 43.6809 72.0263 41.9858C71.2308 40.2907 70.8331 38.3589 70.8331 36.1903C70.8331 34.0028 71.2356 32.0568 72.0405 30.3523C72.8549 28.6477 73.9818 27.3125 75.4212 26.3466C76.8606 25.3712 78.532 24.8835 80.4354 24.8835C81.8937 24.8835 83.2147 25.1676 84.3984 25.7358C85.5821 26.2945 86.5575 27.0852 87.3246 28.108C88.1011 29.1212 88.5888 30.3049 88.7876 31.6591H86.2308C85.9657 30.428 85.3265 29.3769 84.3132 28.5057C83.3094 27.625 82.031 27.1847 80.478 27.1847C79.0859 27.1847 77.8549 27.5634 76.7848 28.321C75.7147 29.0691 74.8767 30.1155 74.2706 31.4602C73.674 32.7955 73.3757 34.3437 73.3757 36.1051C73.3757 37.8759 73.6693 39.4432 74.2564 40.8068C74.8435 42.161 75.6674 43.2216 76.728 43.9886C77.7981 44.7557 79.0481 45.1392 80.478 45.1392C81.4439 45.1392 82.3246 44.9593 83.12 44.5994C83.925 44.2301 84.5973 43.7093 85.1371 43.0369C85.6863 42.3646 86.0556 41.5644 86.245 40.6364H88.8018C88.6125 41.9527 88.1437 43.1269 87.3956 44.1591C86.657 45.1818 85.6958 45.9867 84.5121 46.5739C83.3378 47.161 81.9931 47.4545 80.478 47.4545ZM102.701 47.4545C100.817 47.4545 99.1499 46.9763 97.701 46.0199C96.2616 45.0634 95.1347 43.7424 94.3203 42.0568C93.5059 40.3617 93.0987 38.4062 93.0987 36.1903C93.0987 33.9555 93.5059 31.9905 94.3203 30.2955C95.1347 28.5909 96.2616 27.2652 97.701 26.3182C99.1499 25.3617 100.817 24.8835 102.701 24.8835C104.585 24.8835 106.247 25.3617 107.687 26.3182C109.126 27.2746 110.253 28.6004 111.067 30.2955C111.891 31.9905 112.303 33.9555 112.303 36.1903C112.303 38.4062 111.896 40.3617 111.082 42.0568C110.267 43.7424 109.136 45.0634 107.687 46.0199C106.247 46.9763 104.585 47.4545 102.701 47.4545ZM102.701 45.1392C104.216 45.1392 105.499 44.732 106.55 43.9176C107.602 43.1032 108.397 42.0189 108.937 40.6648C109.486 39.3106 109.761 37.8191 109.761 36.1903C109.761 34.5616 109.486 33.0653 108.937 31.7017C108.397 30.3381 107.602 29.2443 106.55 28.4205C105.499 27.5966 104.216 27.1847 102.701 27.1847C101.195 27.1847 99.9122 27.5966 98.8516 28.4205C97.8004 29.2443 97.0002 30.3381 96.451 31.7017C95.9112 33.0653 95.6413 34.5616 95.6413 36.1903C95.6413 37.8191 95.9112 39.3106 96.451 40.6648C97.0002 42.0189 97.8004 43.1032 98.8516 43.9176C99.9027 44.732 101.186 45.1392 102.701 45.1392ZM117.854 47V25.1818H120.311V28.5341H120.538C120.974 27.4072 121.698 26.5218 122.712 25.8778C123.734 25.2244 124.961 24.8977 126.391 24.8977C127.896 24.8977 129.132 25.2528 130.098 25.9631C131.073 26.6638 131.803 27.6297 132.286 28.8608H132.47C132.963 27.6487 133.763 26.6875 134.871 25.9773C135.988 25.2576 137.342 24.8977 138.933 24.8977C140.96 24.8977 142.56 25.5369 143.734 26.8153C144.909 28.0843 145.496 29.9403 145.496 32.3835V47H142.967V32.3835C142.967 30.66 142.527 29.3674 141.646 28.5057C140.766 27.6439 139.606 27.2131 138.166 27.2131C136.5 27.2131 135.216 27.7244 134.317 28.7472C133.417 29.7699 132.967 31.0672 132.967 32.6392V47H130.382V32.1562C130.382 30.679 129.97 29.4858 129.146 28.5767C128.322 27.6676 127.162 27.2131 125.666 27.2131C124.662 27.2131 123.758 27.4593 122.953 27.9517C122.158 28.4441 121.528 29.1307 121.064 30.0114C120.609 30.8826 120.382 31.8864 120.382 33.0227V47H117.854ZM161.011 47.4545C158.975 47.4545 157.213 46.9811 155.727 46.0341C154.24 45.0777 153.089 43.7566 152.275 42.071C151.47 40.3759 151.067 38.4252 151.067 36.2188C151.067 34.0218 151.47 32.071 152.275 30.3665C153.089 28.6525 154.211 27.3125 155.641 26.3466C157.081 25.3712 158.743 24.8835 160.627 24.8835C161.811 24.8835 162.952 25.1013 164.05 25.5369C165.149 25.9631 166.134 26.6212 167.005 27.5114C167.886 28.392 168.582 29.5047 169.093 30.8494C169.604 32.1847 169.86 33.7661 169.86 35.5938V36.8438H152.815V34.6136H167.275C167.275 33.2121 166.991 31.9527 166.423 30.8352C165.864 29.7083 165.083 28.8182 164.079 28.1648C163.085 27.5114 161.934 27.1847 160.627 27.1847C159.245 27.1847 158.028 27.554 156.977 28.2926C155.925 29.0312 155.102 30.0066 154.505 31.2188C153.918 32.4309 153.62 33.7566 153.61 35.196V36.5312C153.61 38.2642 153.908 39.7794 154.505 41.0767C155.111 42.3646 155.968 43.3636 157.076 44.0739C158.184 44.7841 159.496 45.1392 161.011 45.1392C162.043 45.1392 162.947 44.9782 163.724 44.6562C164.51 44.3343 165.168 43.9034 165.698 43.3636C166.238 42.8144 166.645 42.2131 166.92 41.5597L169.32 42.3409C168.989 43.2595 168.444 44.107 167.687 44.8835C166.939 45.66 166.001 46.285 164.874 46.7585C163.757 47.2225 162.469 47.4545 161.011 47.4545ZM187.207 47V17.9091H197.023C198.917 17.9091 200.493 18.2405 201.753 18.9034C203.022 19.5663 203.973 20.4706 204.608 21.6165C205.242 22.7623 205.56 24.0644 205.56 25.5227C205.56 26.7348 205.356 27.7718 204.949 28.6335C204.542 29.4953 203.988 30.1913 203.287 30.7216C202.586 31.2519 201.805 31.6354 200.943 31.8722V32.0994C201.881 32.1657 202.79 32.4972 203.67 33.0938C204.551 33.6809 205.276 34.5047 205.844 35.5653C206.412 36.6259 206.696 37.8949 206.696 39.3722C206.696 40.84 206.369 42.1515 205.716 43.3068C205.062 44.4527 204.059 45.357 202.705 46.0199C201.36 46.6733 199.646 47 197.562 47H187.207ZM189.864 44.6136H197.562C199.807 44.6136 201.464 44.1165 202.534 43.1222C203.614 42.1278 204.153 40.8778 204.153 39.3722C204.153 38.2642 203.884 37.2604 203.344 36.3608C202.813 35.4517 202.061 34.732 201.085 34.2017C200.119 33.6714 198.983 33.4062 197.676 33.4062H189.864V44.6136ZM189.864 31.0483H197.264C198.41 31.0483 199.414 30.8116 200.276 30.3381C201.137 29.8646 201.81 29.2112 202.293 28.3778C202.776 27.5445 203.017 26.5928 203.017 25.5227C203.017 23.9792 202.515 22.7244 201.511 21.7585C200.508 20.7831 199.011 20.2955 197.023 20.2955H189.864V31.0483ZM218.674 47.4972C217.358 47.4972 216.155 47.2415 215.066 46.7301C213.977 46.2093 213.111 45.4612 212.467 44.4858C211.823 43.5009 211.501 42.3078 211.501 40.9062C211.501 39.8267 211.704 38.9176 212.112 38.179C212.519 37.4403 213.096 36.8343 213.844 36.3608C214.593 35.8873 215.478 35.5133 216.501 35.2386C217.523 34.964 218.65 34.7509 219.881 34.5994C221.103 34.4479 222.135 34.3153 222.978 34.2017C223.83 34.0881 224.479 33.9081 224.924 33.6619C225.369 33.4157 225.592 33.018 225.592 32.4688V31.9574C225.592 30.4706 225.147 29.3011 224.256 28.4489C223.376 27.5871 222.107 27.1562 220.45 27.1562C218.878 27.1562 217.594 27.5019 216.6 28.1932C215.615 28.8845 214.924 29.6989 214.526 30.6364L212.126 29.7699C212.618 28.5767 213.3 27.625 214.171 26.9148C215.042 26.1951 216.018 25.679 217.097 25.3665C218.177 25.0445 219.271 24.8835 220.379 24.8835C221.212 24.8835 222.078 24.9924 222.978 25.2102C223.887 25.428 224.73 25.8068 225.506 26.3466C226.283 26.8769 226.913 27.6203 227.396 28.5767C227.879 29.5237 228.12 30.7263 228.12 32.1847V47H225.592V43.5483H225.435C225.132 44.1922 224.683 44.8172 224.086 45.4233C223.489 46.0294 222.741 46.5265 221.842 46.9148C220.942 47.303 219.886 47.4972 218.674 47.4972ZM219.015 45.1818C220.36 45.1818 221.524 44.8835 222.509 44.2869C223.494 43.6903 224.252 42.8996 224.782 41.9148C225.322 40.9205 225.592 39.8267 225.592 38.6335V35.4801C225.402 35.66 225.085 35.821 224.64 35.9631C224.204 36.1051 223.698 36.233 223.12 36.3466C222.552 36.4508 221.984 36.5407 221.415 36.6165C220.847 36.6922 220.336 36.7585 219.881 36.8153C218.65 36.9669 217.599 37.2036 216.728 37.5256C215.857 37.8475 215.189 38.2926 214.725 38.8608C214.261 39.4195 214.029 40.1392 214.029 41.0199C214.029 42.3456 214.503 43.3731 215.45 44.1023C216.397 44.822 217.585 45.1818 219.015 45.1818ZM243.369 47.4545C241.418 47.4545 239.718 46.9669 238.269 45.9915C236.83 45.0161 235.712 43.6809 234.917 41.9858C234.121 40.2907 233.724 38.3589 233.724 36.1903C233.724 34.0028 234.126 32.0568 234.931 30.3523C235.746 28.6477 236.872 27.3125 238.312 26.3466C239.751 25.3712 241.423 24.8835 243.326 24.8835C244.784 24.8835 246.105 25.1676 247.289 25.7358C248.473 26.2945 249.448 27.0852 250.215 28.108C250.992 29.1212 251.479 30.3049 251.678 31.6591H249.121C248.856 30.428 248.217 29.3769 247.204 28.5057C246.2 27.625 244.922 27.1847 243.369 27.1847C241.977 27.1847 240.746 27.5634 239.675 28.321C238.605 29.0691 237.767 30.1155 237.161 31.4602C236.565 32.7955 236.266 34.3437 236.266 36.1051C236.266 37.8759 236.56 39.4432 237.147 40.8068C237.734 42.161 238.558 43.2216 239.619 43.9886C240.689 44.7557 241.939 45.1392 243.369 45.1392C244.335 45.1392 245.215 44.9593 246.011 44.5994C246.816 44.2301 247.488 43.7093 248.028 43.0369C248.577 42.3646 248.946 41.5644 249.136 40.6364H251.692C251.503 41.9527 251.034 43.1269 250.286 44.1591C249.548 45.1818 248.586 45.9867 247.403 46.5739C246.228 47.161 244.884 47.4545 243.369 47.4545ZM259.413 38.7614L259.384 35.4517H259.952L270.18 25.1818H273.376L263.276 35.2955L263.049 35.3381L259.413 38.7614ZM257.112 47V17.9091H259.64V47H257.112ZM270.705 47L261.842 35.7926L263.66 34.0455L273.944 47H270.705ZM297.971 25.1818V27.3835H287.559V25.1818H297.971ZM290.812 19.9545H293.354V41.304C293.354 42.2131 293.511 42.928 293.823 43.4489C294.136 43.9602 294.543 44.3248 295.045 44.5426C295.547 44.7509 296.082 44.8551 296.65 44.8551C296.981 44.8551 297.265 44.8362 297.502 44.7983C297.739 44.7509 297.947 44.7036 298.127 44.6562L298.667 46.9432C298.421 47.0379 298.118 47.1231 297.758 47.1989C297.398 47.2841 296.953 47.3267 296.423 47.3267C295.495 47.3267 294.6 47.1231 293.738 46.7159C292.886 46.3087 292.185 45.7027 291.636 44.8977C291.086 44.0928 290.812 43.0938 290.812 41.9006V19.9545ZM311.959 47.4545C310.074 47.4545 308.408 46.9763 306.959 46.0199C305.519 45.0634 304.393 43.7424 303.578 42.0568C302.764 40.3617 302.357 38.4062 302.357 36.1903C302.357 33.9555 302.764 31.9905 303.578 30.2955C304.393 28.5909 305.519 27.2652 306.959 26.3182C308.408 25.3617 310.074 24.8835 311.959 24.8835C313.843 24.8835 315.505 25.3617 316.945 26.3182C318.384 27.2746 319.511 28.6004 320.325 30.2955C321.149 31.9905 321.561 33.9555 321.561 36.1903C321.561 38.4062 321.154 40.3617 320.339 42.0568C319.525 43.7424 318.393 45.0634 316.945 46.0199C315.505 46.9763 313.843 47.4545 311.959 47.4545ZM311.959 45.1392C313.474 45.1392 314.757 44.732 315.808 43.9176C316.859 43.1032 317.655 42.0189 318.195 40.6648C318.744 39.3106 319.018 37.8191 319.018 36.1903C319.018 34.5616 318.744 33.0653 318.195 31.7017C317.655 30.3381 316.859 29.2443 315.808 28.4205C314.757 27.5966 313.474 27.1847 311.959 27.1847C310.453 27.1847 309.17 27.5966 308.109 28.4205C307.058 29.2443 306.258 30.3381 305.709 31.7017C305.169 33.0653 304.899 34.5616 304.899 36.1903C304.899 37.8191 305.169 39.3106 305.709 40.6648C306.258 42.0189 307.058 43.1032 308.109 43.9176C309.161 44.732 310.444 45.1392 311.959 45.1392ZM4.86364 111V81.9091H21.7386V84.2955H7.51989V95.2472H20.8438V97.6335H7.51989V108.614H22.0227V111H4.86364ZM35.9432 111.455C34.1534 111.455 32.5862 110.981 31.2415 110.034C29.8968 109.087 28.8456 107.766 28.0881 106.071C27.34 104.376 26.9659 102.402 26.9659 100.148C26.9659 97.9034 27.34 95.9384 28.0881 94.2528C28.8456 92.5578 29.9015 91.2415 31.2557 90.304C32.6098 89.357 34.1866 88.8835 35.9858 88.8835C37.3116 88.8835 38.4148 89.1203 39.2955 89.5938C40.1761 90.0578 40.8816 90.6354 41.4119 91.3267C41.9422 92.018 42.3542 92.6903 42.6477 93.3438H42.875V81.9091H45.4176V111H42.946V106.952H42.6477C42.3542 107.615 41.9375 108.296 41.3977 108.997C40.858 109.688 40.143 110.271 39.2528 110.744C38.3722 111.218 37.2689 111.455 35.9432 111.455ZM36.2415 109.139C37.6525 109.139 38.8551 108.756 39.8494 107.989C40.8438 107.212 41.6013 106.147 42.1222 104.793C42.6525 103.429 42.9176 101.866 42.9176 100.105C42.9176 98.3627 42.6572 96.8239 42.1364 95.4886C41.6155 94.1439 40.858 93.0928 39.8636 92.3352C38.8693 91.5682 37.6619 91.1847 36.2415 91.1847C34.7831 91.1847 33.5521 91.5824 32.5483 92.3778C31.554 93.1638 30.7964 94.2292 30.2756 95.5739C29.7642 96.9186 29.5085 98.429 29.5085 100.105C29.5085 101.8 29.7689 103.33 30.2898 104.693C30.8106 106.057 31.5682 107.141 32.5625 107.946C33.5663 108.741 34.7926 109.139 36.2415 109.139ZM66.483 102.662V89.1818H69.0114V111H66.483V107.378H66.2841C65.7727 108.495 64.9631 109.428 63.8551 110.176C62.7472 110.915 61.393 111.284 59.7926 111.284C58.4006 111.284 57.1648 110.981 56.0852 110.375C55.0057 109.759 54.1581 108.86 53.5426 107.676C52.9271 106.492 52.6193 105.039 52.6193 103.315V89.1818H55.1477V103.159C55.1477 104.864 55.6496 106.237 56.6534 107.278C57.6572 108.311 58.9451 108.827 60.517 108.827C61.5019 108.827 62.4489 108.59 63.358 108.116C64.267 107.643 65.0152 106.952 65.6023 106.043C66.1894 105.124 66.483 103.997 66.483 102.662ZM90.3643 93.9688L88.049 94.6222C87.8217 93.9687 87.4998 93.3769 87.0831 92.8466C86.6664 92.3163 86.1219 91.8949 85.4496 91.5824C84.7867 91.2699 83.9628 91.1136 82.978 91.1136C81.5007 91.1136 80.2886 91.464 79.3416 92.1648C78.3946 92.8655 77.9212 93.7699 77.9212 94.8778C77.9212 95.8153 78.2431 96.5777 78.8871 97.1648C79.5405 97.7424 80.5443 98.2017 81.8984 98.5426L85.1939 99.3523C87.0215 99.7973 88.3899 100.503 89.299 101.469C90.2176 102.435 90.6768 103.647 90.6768 105.105C90.6768 106.336 90.3359 107.43 89.6541 108.386C88.9723 109.343 88.0206 110.096 86.799 110.645C85.5869 111.185 84.1806 111.455 82.5803 111.455C80.4496 111.455 78.6929 110.976 77.3104 110.02C75.9278 109.054 75.0424 107.662 74.6541 105.844L77.0831 105.247C77.3956 106.545 78.0064 107.525 78.9155 108.188C79.834 108.85 81.0414 109.182 82.5376 109.182C84.2138 109.182 85.5537 108.808 86.5575 108.06C87.5613 107.302 88.0632 106.355 88.0632 105.219C88.0632 104.338 87.7697 103.599 87.1825 103.003C86.5954 102.397 85.7053 101.952 84.5121 101.668L80.9467 100.815C79.0528 100.361 77.6513 99.6411 76.7422 98.6562C75.8331 97.6714 75.3786 96.4498 75.3786 94.9915C75.3786 93.7888 75.7053 92.733 76.3587 91.8239C77.0121 90.9053 77.9117 90.1856 79.0575 89.6648C80.2034 89.1439 81.5102 88.8835 82.978 88.8835C84.9761 88.8835 86.5717 89.3381 87.7649 90.2472C88.9676 91.1468 89.834 92.3873 90.3643 93.9688ZM101.057 111L94.4659 89.1818H97.1364L102.307 107.179H102.491L107.648 89.1818H110.332L115.446 107.136H115.645L120.815 89.1818H123.486L116.895 111H114.281L109.111 93.1165H108.841L103.67 111H101.057ZM128.429 111V89.1818H130.972V111H128.429ZM129.722 85.4318C129.201 85.4318 128.756 85.2566 128.386 84.9062C128.017 84.5464 127.832 84.1155 127.832 83.6136C127.832 83.1117 128.017 82.6856 128.386 82.3352C128.756 81.9754 129.201 81.7955 129.722 81.7955C130.242 81.7955 130.688 81.9754 131.057 82.3352C131.426 82.6856 131.611 83.1117 131.611 83.6136C131.611 84.1155 131.426 84.5464 131.057 84.9062C130.688 85.2566 130.242 85.4318 129.722 85.4318ZM146.636 89.1818V91.3835H135.911V89.1818H146.636ZM139.263 111V85.9858C139.263 84.8116 139.533 83.822 140.073 83.017C140.622 82.2121 141.337 81.6013 142.218 81.1847C143.099 80.768 144.031 80.5597 145.016 80.5597C145.679 80.5597 146.228 80.6165 146.664 80.7301C147.109 80.8343 147.46 80.9384 147.715 81.0426L146.977 83.2585C146.787 83.2017 146.555 83.1354 146.281 83.0597C146.006 82.9839 145.66 82.946 145.244 82.946C144.145 82.946 143.298 83.2538 142.701 83.8693C142.104 84.4848 141.806 85.3655 141.806 86.5114L141.792 111H139.263ZM160.276 89.1818V91.3835H149.864V89.1818H160.276ZM153.116 83.9545H155.659V105.304C155.659 106.213 155.815 106.928 156.128 107.449C156.44 107.96 156.848 108.325 157.349 108.543C157.851 108.751 158.386 108.855 158.955 108.855C159.286 108.855 159.57 108.836 159.807 108.798C160.044 108.751 160.252 108.704 160.432 108.656L160.972 110.943C160.725 111.038 160.422 111.123 160.062 111.199C159.703 111.284 159.258 111.327 158.727 111.327C157.799 111.327 156.904 111.123 156.043 110.716C155.19 110.309 154.49 109.703 153.94 108.898C153.391 108.093 153.116 107.094 153.116 105.901V83.9545ZM177.793 111V81.9091H180.45V108.614H194.313V111H177.793ZM200.293 81.9091H203.362L213.915 107.25H214.171L224.725 81.9091H227.793V111H225.293V87.5199H225.066L215.251 111H212.836L203.021 87.5199H202.793V111H200.293V81.9091ZM251.323 89.1818C251.162 87.5625 250.447 86.2746 249.178 85.3182C247.909 84.3617 246.314 83.8835 244.391 83.8835C243.037 83.8835 241.844 84.1155 240.812 84.5795C239.789 85.0436 238.984 85.6875 238.397 86.5114C237.819 87.3258 237.531 88.2538 237.531 89.2955C237.531 90.0625 237.696 90.7348 238.028 91.3125C238.359 91.8902 238.804 92.3873 239.363 92.804C239.931 93.2112 240.556 93.5616 241.238 93.8551C241.929 94.1487 242.625 94.3949 243.326 94.5938L246.394 95.4744C247.322 95.7301 248.25 96.0568 249.178 96.4545C250.106 96.8523 250.954 97.3542 251.721 97.9602C252.497 98.5568 253.118 99.2907 253.582 100.162C254.055 101.024 254.292 102.061 254.292 103.273C254.292 104.826 253.889 106.223 253.085 107.463C252.28 108.704 251.124 109.688 249.619 110.418C248.113 111.137 246.309 111.497 244.207 111.497C242.228 111.497 240.509 111.17 239.05 110.517C237.592 109.854 236.446 108.94 235.613 107.776C234.78 106.611 234.311 105.261 234.207 103.727H236.934C237.029 104.873 237.407 105.844 238.07 106.639C238.733 107.435 239.595 108.041 240.656 108.457C241.716 108.865 242.9 109.068 244.207 109.068C245.656 109.068 246.943 108.827 248.07 108.344C249.207 107.851 250.097 107.17 250.741 106.298C251.394 105.418 251.721 104.395 251.721 103.23C251.721 102.245 251.465 101.421 250.954 100.759C250.442 100.086 249.728 99.5227 248.809 99.0682C247.9 98.6136 246.844 98.2112 245.641 97.8608L242.161 96.8381C239.879 96.1562 238.108 95.214 236.849 94.0114C235.589 92.8087 234.96 91.2746 234.96 89.4091C234.96 87.8466 235.376 86.4735 236.21 85.2898C237.052 84.0966 238.189 83.1686 239.619 82.5057C241.058 81.8333 242.673 81.4972 244.462 81.4972C246.271 81.4972 247.871 81.8286 249.263 82.4915C250.656 83.1544 251.759 84.0682 252.573 85.233C253.397 86.3883 253.837 87.7045 253.894 89.1818H251.323ZM20.6591 153.182C20.4981 151.562 19.7831 150.275 18.5142 149.318C17.2453 148.362 15.6496 147.884 13.7273 147.884C12.3731 147.884 11.1799 148.116 10.1477 148.58C9.125 149.044 8.32008 149.687 7.73295 150.511C7.1553 151.326 6.86648 152.254 6.86648 153.295C6.86648 154.062 7.0322 154.735 7.36364 155.312C7.69508 155.89 8.14015 156.387 8.69886 156.804C9.26705 157.211 9.89205 157.562 10.5739 157.855C11.2652 158.149 11.9612 158.395 12.6619 158.594L15.7301 159.474C16.6581 159.73 17.5862 160.057 18.5142 160.455C19.4422 160.852 20.2898 161.354 21.0568 161.96C21.8333 162.557 22.4536 163.291 22.9176 164.162C23.3911 165.024 23.6278 166.061 23.6278 167.273C23.6278 168.826 23.2254 170.223 22.4205 171.463C21.6155 172.704 20.4602 173.688 18.9545 174.418C17.4489 175.137 15.6449 175.497 13.5426 175.497C11.5634 175.497 9.8447 175.17 8.38636 174.517C6.92803 173.854 5.7822 172.94 4.94886 171.776C4.11553 170.611 3.64678 169.261 3.54261 167.727H6.26989C6.36458 168.873 6.74337 169.844 7.40625 170.639C8.06913 171.435 8.93087 172.041 9.99148 172.457C11.0521 172.865 12.2358 173.068 13.5426 173.068C14.9915 173.068 16.2794 172.827 17.4062 172.344C18.5426 171.851 19.4328 171.17 20.0767 170.298C20.7301 169.418 21.0568 168.395 21.0568 167.23C21.0568 166.245 20.8011 165.421 20.2898 164.759C19.7784 164.086 19.0634 163.523 18.1449 163.068C17.2358 162.614 16.1799 162.211 14.9773 161.861L11.4972 160.838C9.21496 160.156 7.44413 159.214 6.18466 158.011C4.92519 156.809 4.29545 155.275 4.29545 153.409C4.29545 151.847 4.71212 150.473 5.54545 149.29C6.38826 148.097 7.52462 147.169 8.95455 146.506C10.3939 145.833 12.0085 145.497 13.7983 145.497C15.607 145.497 17.2074 145.829 18.5994 146.491C19.9915 147.154 21.0947 148.068 21.9091 149.233C22.733 150.388 23.1733 151.705 23.2301 153.182H20.6591ZM38.0881 153.182V155.384H27.6761V153.182H38.0881ZM30.929 147.955H33.4716V169.304C33.4716 170.213 33.6278 170.928 33.9403 171.449C34.2528 171.96 34.66 172.325 35.1619 172.543C35.6638 172.751 36.1989 172.855 36.767 172.855C37.0985 172.855 37.3826 172.836 37.6193 172.798C37.8561 172.751 38.0644 172.704 38.2443 172.656L38.7841 174.943C38.5379 175.038 38.2348 175.123 37.875 175.199C37.5152 175.284 37.0701 175.327 36.5398 175.327C35.6117 175.327 34.7169 175.123 33.8551 174.716C33.0028 174.309 32.3021 173.703 31.7528 172.898C31.2036 172.093 30.929 171.094 30.929 169.901V147.955ZM57.6939 166.662V153.182H60.2223V175H57.6939V171.378H57.495C56.9837 172.495 56.174 173.428 55.0661 174.176C53.9581 174.915 52.6039 175.284 51.0036 175.284C49.6115 175.284 48.3757 174.981 47.2962 174.375C46.2166 173.759 45.3691 172.86 44.7536 171.676C44.138 170.492 43.8303 169.039 43.8303 167.315V153.182H46.3587V167.159C46.3587 168.864 46.8606 170.237 47.8643 171.278C48.8681 172.311 50.156 172.827 51.728 172.827C52.7128 172.827 53.6598 172.59 54.5689 172.116C55.478 171.643 56.2261 170.952 56.8132 170.043C57.4003 169.124 57.6939 167.997 57.6939 166.662ZM74.7713 175.455C72.9815 175.455 71.4143 174.981 70.0696 174.034C68.7249 173.087 67.6738 171.766 66.9162 170.071C66.1681 168.376 65.794 166.402 65.794 164.148C65.794 161.903 66.1681 159.938 66.9162 158.253C67.6738 156.558 68.7296 155.241 70.0838 154.304C71.438 153.357 73.0147 152.884 74.8139 152.884C76.1397 152.884 77.2429 153.12 78.1236 153.594C79.0043 154.058 79.7098 154.635 80.2401 155.327C80.7704 156.018 81.1823 156.69 81.4759 157.344H81.7031V145.909H84.2457V175H81.7741V170.952H81.4759C81.1823 171.615 80.7656 172.296 80.2259 172.997C79.6861 173.688 78.9711 174.271 78.081 174.744C77.2003 175.218 76.0971 175.455 74.7713 175.455ZM75.0696 173.139C76.4806 173.139 77.6832 172.756 78.6776 171.989C79.6719 171.212 80.4295 170.147 80.9503 168.793C81.4806 167.429 81.7457 165.866 81.7457 164.105C81.7457 162.363 81.4853 160.824 80.9645 159.489C80.4437 158.144 79.6861 157.093 78.6918 156.335C77.6974 155.568 76.4901 155.185 75.0696 155.185C73.6113 155.185 72.3802 155.582 71.3764 156.378C70.3821 157.164 69.6245 158.229 69.1037 159.574C68.5923 160.919 68.3366 162.429 68.3366 164.105C68.3366 165.8 68.5971 167.33 69.1179 168.693C69.6387 170.057 70.3963 171.141 71.3906 171.946C72.3944 172.741 73.6207 173.139 75.0696 173.139ZM100.268 175.455C98.2325 175.455 96.4711 174.981 94.9844 174.034C93.4976 173.078 92.3471 171.757 91.5327 170.071C90.7277 168.376 90.3253 166.425 90.3253 164.219C90.3253 162.022 90.7277 160.071 91.5327 158.366C92.3471 156.652 93.4692 155.312 94.8991 154.347C96.3385 153.371 98.0005 152.884 99.8849 152.884C101.069 152.884 102.21 153.101 103.308 153.537C104.407 153.963 105.392 154.621 106.263 155.511C107.143 156.392 107.839 157.505 108.351 158.849C108.862 160.185 109.118 161.766 109.118 163.594V164.844H92.0724V162.614H106.533C106.533 161.212 106.249 159.953 105.68 158.835C105.122 157.708 104.34 156.818 103.337 156.165C102.342 155.511 101.192 155.185 99.8849 155.185C98.5024 155.185 97.2855 155.554 96.2344 156.293C95.1832 157.031 94.3594 158.007 93.7628 159.219C93.1757 160.431 92.8774 161.757 92.8679 163.196V164.531C92.8679 166.264 93.1662 167.779 93.7628 169.077C94.3688 170.365 95.2259 171.364 96.3338 172.074C97.4418 172.784 98.7533 173.139 100.268 173.139C101.301 173.139 102.205 172.978 102.982 172.656C103.768 172.334 104.426 171.903 104.956 171.364C105.496 170.814 105.903 170.213 106.178 169.56L108.578 170.341C108.247 171.259 107.702 172.107 106.945 172.884C106.196 173.66 105.259 174.285 104.132 174.759C103.015 175.223 101.727 175.455 100.268 175.455ZM117.218 161.364V175H114.69V153.182H117.147V156.605H117.374C117.886 155.488 118.681 154.593 119.761 153.92C120.85 153.239 122.194 152.898 123.795 152.898C125.263 152.898 126.55 153.205 127.658 153.821C128.776 154.427 129.642 155.322 130.258 156.506C130.883 157.689 131.195 159.143 131.195 160.866V175H128.667V161.023C128.667 159.233 128.165 157.817 127.161 156.776C126.167 155.734 124.832 155.213 123.156 155.213C122.01 155.213 120.992 155.459 120.102 155.952C119.211 156.444 118.506 157.154 117.985 158.082C117.474 159.001 117.218 160.095 117.218 161.364ZM146.447 153.182V155.384H136.036V153.182H146.447ZM139.288 147.955H141.831V169.304C141.831 170.213 141.987 170.928 142.3 171.449C142.612 171.96 143.019 172.325 143.521 172.543C144.023 172.751 144.558 172.855 145.126 172.855C145.458 172.855 145.742 172.836 145.979 172.798C146.215 172.751 146.424 172.704 146.604 172.656L147.143 174.943C146.897 175.038 146.594 175.123 146.234 175.199C145.875 175.284 145.429 175.327 144.899 175.327C143.971 175.327 143.076 175.123 142.214 174.716C141.362 174.309 140.661 173.703 140.112 172.898C139.563 172.093 139.288 171.094 139.288 169.901V147.955ZM163.965 175V145.909H173.354C175.419 145.909 177.142 146.307 178.525 147.102C179.917 147.888 180.963 148.958 181.664 150.312C182.374 151.667 182.729 153.191 182.729 154.886C182.729 156.581 182.379 158.111 181.678 159.474C180.978 160.829 179.936 161.903 178.553 162.699C177.171 163.485 175.452 163.878 173.397 163.878H166.011V161.491H173.326C174.851 161.491 176.115 161.207 177.119 160.639C178.122 160.062 178.871 159.276 179.363 158.281C179.865 157.287 180.116 156.155 180.116 154.886C180.116 153.617 179.865 152.486 179.363 151.491C178.871 150.497 178.118 149.716 177.104 149.148C176.101 148.58 174.827 148.295 173.283 148.295H166.621V175H163.965ZM196.685 175.455C194.801 175.455 193.134 174.976 191.685 174.02C190.246 173.063 189.119 171.742 188.305 170.057C187.49 168.362 187.083 166.406 187.083 164.19C187.083 161.955 187.49 159.991 188.305 158.295C189.119 156.591 190.246 155.265 191.685 154.318C193.134 153.362 194.801 152.884 196.685 152.884C198.57 152.884 200.232 153.362 201.671 154.318C203.111 155.275 204.237 156.6 205.052 158.295C205.876 159.991 206.288 161.955 206.288 164.19C206.288 166.406 205.88 168.362 205.066 170.057C204.252 171.742 203.12 173.063 201.671 174.02C200.232 174.976 198.57 175.455 196.685 175.455ZM196.685 173.139C198.201 173.139 199.484 172.732 200.535 171.918C201.586 171.103 202.381 170.019 202.921 168.665C203.47 167.311 203.745 165.819 203.745 164.19C203.745 162.562 203.47 161.065 202.921 159.702C202.381 158.338 201.586 157.244 200.535 156.42C199.484 155.597 198.201 155.185 196.685 155.185C195.18 155.185 193.897 155.597 192.836 156.42C191.785 157.244 190.985 158.338 190.435 159.702C189.896 161.065 189.626 162.562 189.626 164.19C189.626 165.819 189.896 167.311 190.435 168.665C190.985 170.019 191.785 171.103 192.836 171.918C193.887 172.732 195.17 173.139 196.685 173.139ZM211.838 175V153.182H214.295V156.534H214.48C214.916 155.436 215.673 154.55 216.753 153.878C217.842 153.196 219.073 152.855 220.446 152.855C220.654 152.855 220.886 152.86 221.142 152.869C221.398 152.879 221.611 152.888 221.781 152.898V155.469C221.668 155.45 221.469 155.421 221.185 155.384C220.901 155.346 220.593 155.327 220.261 155.327C219.125 155.327 218.112 155.568 217.222 156.051C216.341 156.525 215.645 157.183 215.134 158.026C214.622 158.868 214.366 159.83 214.366 160.909V175H211.838ZM236.057 153.182V155.384H225.645V153.182H236.057ZM228.898 147.955H231.44V169.304C231.44 170.213 231.597 170.928 231.909 171.449C232.222 171.96 232.629 172.325 233.131 172.543C233.633 172.751 234.168 172.855 234.736 172.855C235.067 172.855 235.351 172.836 235.588 172.798C235.825 172.751 236.033 172.704 236.213 172.656L236.753 174.943C236.507 175.038 236.204 175.123 235.844 175.199C235.484 175.284 235.039 175.327 234.509 175.327C233.58 175.327 232.686 175.123 231.824 174.716C230.972 174.309 230.271 173.703 229.722 172.898C229.172 172.093 228.898 171.094 228.898 169.901V147.955ZM247.893 175.497C246.576 175.497 245.374 175.241 244.285 174.73C243.196 174.209 242.329 173.461 241.685 172.486C241.041 171.501 240.719 170.308 240.719 168.906C240.719 167.827 240.923 166.918 241.33 166.179C241.737 165.44 242.315 164.834 243.063 164.361C243.811 163.887 244.697 163.513 245.719 163.239C246.742 162.964 247.869 162.751 249.1 162.599C250.322 162.448 251.354 162.315 252.197 162.202C253.049 162.088 253.698 161.908 254.143 161.662C254.588 161.416 254.81 161.018 254.81 160.469V159.957C254.81 158.471 254.365 157.301 253.475 156.449C252.594 155.587 251.326 155.156 249.668 155.156C248.096 155.156 246.813 155.502 245.819 156.193C244.834 156.884 244.143 157.699 243.745 158.636L241.344 157.77C241.837 156.577 242.519 155.625 243.39 154.915C244.261 154.195 245.237 153.679 246.316 153.366C247.396 153.045 248.489 152.884 249.597 152.884C250.431 152.884 251.297 152.992 252.197 153.21C253.106 153.428 253.949 153.807 254.725 154.347C255.502 154.877 256.131 155.62 256.614 156.577C257.097 157.524 257.339 158.726 257.339 160.185V175H254.81V171.548H254.654C254.351 172.192 253.901 172.817 253.305 173.423C252.708 174.029 251.96 174.527 251.06 174.915C250.161 175.303 249.105 175.497 247.893 175.497ZM248.234 173.182C249.578 173.182 250.743 172.884 251.728 172.287C252.713 171.69 253.47 170.9 254.001 169.915C254.54 168.92 254.81 167.827 254.81 166.634V163.48C254.621 163.66 254.304 163.821 253.859 163.963C253.423 164.105 252.916 164.233 252.339 164.347C251.771 164.451 251.202 164.541 250.634 164.616C250.066 164.692 249.555 164.759 249.1 164.815C247.869 164.967 246.818 165.204 245.947 165.526C245.076 165.848 244.408 166.293 243.944 166.861C243.48 167.42 243.248 168.139 243.248 169.02C243.248 170.346 243.721 171.373 244.668 172.102C245.615 172.822 246.804 173.182 248.234 173.182ZM266.593 145.909V175H264.065V145.909H266.593Z" fill="white"/>
<path d="M3.928 256.144C3.704 256.144 3.528 256.08 3.4 255.952C3.272 255.808 3.208 255.616 3.208 255.376V239.848C3.208 239.592 3.272 239.4 3.4 239.272C3.544 239.144 3.728 239.08 3.952 239.08H9.592C11.384 239.08 12.76 239.512 13.72 240.376C14.68 241.24 15.16 242.472 15.16 244.072C15.16 245.656 14.68 246.888 13.72 247.768C12.76 248.632 11.384 249.064 9.592 249.064H4.672V255.376C4.672 255.616 4.608 255.808 4.48 255.952C4.368 256.08 4.184 256.144 3.928 256.144ZM4.672 247.768H9.472C10.864 247.768 11.912 247.456 12.616 246.832C13.32 246.208 13.672 245.288 13.672 244.072C13.672 242.856 13.32 241.936 12.616 241.312C11.912 240.672 10.864 240.352 9.472 240.352H4.672V247.768ZM21.2566 256.192C20.1846 256.192 19.3526 255.856 18.7606 255.184C18.1846 254.512 17.8966 253.56 17.8966 252.328V239.68C17.8966 239.424 17.9606 239.24 18.0886 239.128C18.2166 239 18.4006 238.936 18.6406 238.936C18.8646 238.936 19.0406 239 19.1686 239.128C19.2966 239.24 19.3606 239.424 19.3606 239.68V252.16C19.3606 253.088 19.5446 253.784 19.9126 254.248C20.2806 254.696 20.8166 254.92 21.5206 254.92C21.6806 254.92 21.8166 254.912 21.9286 254.896C22.0406 254.88 22.1526 254.872 22.2646 254.872C22.4086 254.856 22.5126 254.888 22.5766 254.968C22.6566 255.032 22.6966 255.176 22.6966 255.4C22.6966 255.624 22.6406 255.792 22.5286 255.904C22.4166 256.016 22.2326 256.096 21.9766 256.144C21.8646 256.16 21.7446 256.168 21.6166 256.168C21.5046 256.184 21.3846 256.192 21.2566 256.192ZM29.6871 256.192C28.4871 256.192 27.4551 255.952 26.5911 255.472C25.7271 254.992 25.0631 254.304 24.5991 253.408C24.1351 252.512 23.9031 251.448 23.9031 250.216C23.9031 249 24.1351 247.944 24.5991 247.048C25.0631 246.136 25.7031 245.424 26.5191 244.912C27.3511 244.4 28.3031 244.144 29.3751 244.144C30.1591 244.144 30.8471 244.28 31.4391 244.552C32.0471 244.808 32.5591 245.184 32.9751 245.68C33.4071 246.16 33.7351 246.752 33.9591 247.456C34.1831 248.144 34.2951 248.928 34.2951 249.808C34.2951 250.032 34.2311 250.2 34.1031 250.312C33.9911 250.424 33.8311 250.48 33.6231 250.48H24.9591V249.4H33.3831L32.9991 249.712C32.9991 248.784 32.8631 248 32.5911 247.36C32.3191 246.704 31.9111 246.2 31.3671 245.848C30.8391 245.496 30.1831 245.32 29.3991 245.32C28.5191 245.32 27.7751 245.528 27.1671 245.944C26.5591 246.344 26.1031 246.904 25.7991 247.624C25.4951 248.328 25.3431 249.144 25.3431 250.072V250.192C25.3431 251.728 25.7191 252.912 26.4711 253.744C27.2231 254.56 28.2791 254.968 29.6391 254.968C30.2311 254.968 30.7991 254.888 31.3431 254.728C31.9031 254.568 32.4471 254.296 32.9751 253.912C33.1351 253.8 33.2871 253.744 33.4311 253.744C33.5911 253.744 33.7191 253.784 33.8151 253.864C33.9271 253.944 33.9991 254.048 34.0311 254.176C34.0791 254.288 34.0711 254.416 34.0071 254.56C33.9591 254.688 33.8551 254.808 33.6951 254.92C33.1831 255.336 32.5671 255.656 31.8471 255.88C31.1271 256.088 30.4071 256.192 29.6871 256.192ZM40.8794 256.192C40.0954 256.192 39.3914 256.04 38.7674 255.736C38.1594 255.432 37.6714 255.016 37.3034 254.488C36.9514 253.96 36.7754 253.368 36.7754 252.712C36.7754 251.848 36.9914 251.168 37.4234 250.672C37.8554 250.176 38.5834 249.832 39.6074 249.64C40.6314 249.432 42.0394 249.328 43.8314 249.328H44.8634V250.408H43.8554C42.4154 250.408 41.2874 250.472 40.4714 250.6C39.6714 250.712 39.1114 250.928 38.7914 251.248C38.4714 251.568 38.3114 252.016 38.3114 252.592C38.3114 253.312 38.5594 253.896 39.0554 254.344C39.5514 254.792 40.2234 255.016 41.0714 255.016C41.7594 255.016 42.3594 254.856 42.8714 254.536C43.3994 254.2 43.8154 253.744 44.1194 253.168C44.4234 252.592 44.5754 251.936 44.5754 251.2V248.464C44.5754 247.392 44.3594 246.616 43.9274 246.136C43.4954 245.64 42.8074 245.392 41.8634 245.392C41.2554 245.392 40.6634 245.472 40.0874 245.632C39.5274 245.792 38.9274 246.048 38.2874 246.4C38.1114 246.496 37.9514 246.528 37.8074 246.496C37.6794 246.464 37.5754 246.4 37.4954 246.304C37.4314 246.208 37.3834 246.096 37.3514 245.968C37.3354 245.824 37.3594 245.688 37.4234 245.56C37.4874 245.432 37.5994 245.328 37.7594 245.248C38.4314 244.88 39.1114 244.608 39.7994 244.432C40.5034 244.24 41.1834 244.144 41.8394 244.144C42.7834 244.144 43.5594 244.304 44.1674 244.624C44.7914 244.944 45.2474 245.424 45.5354 246.064C45.8394 246.704 45.9914 247.528 45.9914 248.536V255.4C45.9914 255.64 45.9354 255.824 45.8234 255.952C45.7114 256.08 45.5434 256.144 45.3194 256.144C45.0954 256.144 44.9194 256.08 44.7914 255.952C44.6634 255.824 44.5994 255.64 44.5994 255.4V253.192H44.8394C44.6954 253.816 44.4394 254.352 44.0714 254.8C43.7034 255.248 43.2474 255.592 42.7034 255.832C42.1594 256.072 41.5514 256.192 40.8794 256.192ZM53.6104 256.192C52.8904 256.192 52.1704 256.096 51.4504 255.904C50.7464 255.712 50.0744 255.384 49.4344 254.92C49.3064 254.84 49.2184 254.744 49.1704 254.632C49.1384 254.504 49.1304 254.376 49.1464 254.248C49.1784 254.12 49.2344 254.016 49.3144 253.936C49.4104 253.84 49.5224 253.784 49.6504 253.768C49.7784 253.752 49.9144 253.792 50.0584 253.888C50.6824 254.304 51.2904 254.592 51.8824 254.752C52.4744 254.912 53.0664 254.992 53.6584 254.992C54.6344 254.992 55.3784 254.808 55.8904 254.44C56.4024 254.072 56.6584 253.576 56.6584 252.952C56.6584 252.44 56.4904 252.048 56.1544 251.776C55.8344 251.488 55.3064 251.256 54.5704 251.08L52.4824 250.6C51.4744 250.376 50.7304 250.016 50.2504 249.52C49.7704 249.008 49.5304 248.352 49.5304 247.552C49.5304 246.864 49.7064 246.264 50.0584 245.752C50.4264 245.24 50.9384 244.848 51.5944 244.576C52.2664 244.288 53.0344 244.144 53.8984 244.144C54.6024 244.144 55.2744 244.248 55.9144 244.456C56.5544 244.664 57.1144 244.984 57.5944 245.416C57.7224 245.512 57.8024 245.624 57.8344 245.752C57.8824 245.88 57.8824 246.008 57.8344 246.136C57.8024 246.248 57.7384 246.344 57.6424 246.424C57.5464 246.504 57.4344 246.544 57.3064 246.544C57.1784 246.544 57.0424 246.496 56.8984 246.4C56.4344 246.048 55.9464 245.792 55.4344 245.632C54.9224 245.456 54.4024 245.368 53.8744 245.368C52.9464 245.368 52.2264 245.56 51.7144 245.944C51.2184 246.328 50.9704 246.848 50.9704 247.504C50.9704 248 51.1224 248.4 51.4264 248.704C51.7464 249.008 52.2424 249.24 52.9144 249.4L55.0024 249.88C56.0424 250.12 56.8184 250.48 57.3304 250.96C57.8424 251.424 58.0984 252.056 58.0984 252.856C58.0984 253.88 57.6904 254.696 56.8744 255.304C56.0744 255.896 54.9864 256.192 53.6104 256.192ZM66.3434 256.192C65.1434 256.192 64.1114 255.952 63.2474 255.472C62.3834 254.992 61.7194 254.304 61.2554 253.408C60.7914 252.512 60.5594 251.448 60.5594 250.216C60.5594 249 60.7914 247.944 61.2554 247.048C61.7194 246.136 62.3594 245.424 63.1754 244.912C64.0074 244.4 64.9594 244.144 66.0314 244.144C66.8154 244.144 67.5034 244.28 68.0954 244.552C68.7034 244.808 69.2154 245.184 69.6314 245.68C70.0634 246.16 70.3914 246.752 70.6154 247.456C70.8394 248.144 70.9514 248.928 70.9514 249.808C70.9514 250.032 70.8874 250.2 70.7594 250.312C70.6474 250.424 70.4874 250.48 70.2794 250.48H61.6154V249.4H70.0394L69.6554 249.712C69.6554 248.784 69.5194 248 69.2474 247.36C68.9754 246.704 68.5674 246.2 68.0234 245.848C67.4954 245.496 66.8394 245.32 66.0554 245.32C65.1754 245.32 64.4314 245.528 63.8234 245.944C63.2154 246.344 62.7594 246.904 62.4554 247.624C62.1514 248.328 61.9994 249.144 61.9994 250.072V250.192C61.9994 251.728 62.3754 252.912 63.1274 253.744C63.8794 254.56 64.9354 254.968 66.2954 254.968C66.8874 254.968 67.4554 254.888 67.9994 254.728C68.5594 254.568 69.1034 254.296 69.6314 253.912C69.7914 253.8 69.9434 253.744 70.0874 253.744C70.2474 253.744 70.3754 253.784 70.4714 253.864C70.5834 253.944 70.6554 254.048 70.6874 254.176C70.7354 254.288 70.7274 254.416 70.6634 254.56C70.6154 254.688 70.5114 254.808 70.3514 254.92C69.8394 255.336 69.2234 255.656 68.5034 255.88C67.7834 256.088 67.0634 256.192 66.3434 256.192ZM85.0465 256.192C83.8465 256.192 82.8145 255.952 81.9505 255.472C81.0865 254.992 80.4225 254.304 79.9585 253.408C79.4945 252.512 79.2625 251.448 79.2625 250.216C79.2625 249 79.4945 247.944 79.9585 247.048C80.4225 246.136 81.0625 245.424 81.8785 244.912C82.7105 244.4 83.6625 244.144 84.7345 244.144C85.5185 244.144 86.2065 244.28 86.7985 244.552C87.4065 244.808 87.9185 245.184 88.3345 245.68C88.7665 246.16 89.0945 246.752 89.3185 247.456C89.5425 248.144 89.6545 248.928 89.6545 249.808C89.6545 250.032 89.5905 250.2 89.4625 250.312C89.3505 250.424 89.1905 250.48 88.9825 250.48H80.3185V249.4H88.7425L88.3585 249.712C88.3585 248.784 88.2225 248 87.9505 247.36C87.6785 246.704 87.2705 246.2 86.7265 245.848C86.1985 245.496 85.5425 245.32 84.7585 245.32C83.8785 245.32 83.1345 245.528 82.5265 245.944C81.9185 246.344 81.4625 246.904 81.1585 247.624C80.8545 248.328 80.7025 249.144 80.7025 250.072V250.192C80.7025 251.728 81.0785 252.912 81.8305 253.744C82.5825 254.56 83.6385 254.968 84.9985 254.968C85.5905 254.968 86.1585 254.888 86.7025 254.728C87.2625 254.568 87.8065 254.296 88.3345 253.912C88.4945 253.8 88.6465 253.744 88.7905 253.744C88.9505 253.744 89.0785 253.784 89.1745 253.864C89.2865 253.944 89.3585 254.048 89.3905 254.176C89.4385 254.288 89.4305 254.416 89.3665 254.56C89.3185 254.688 89.2145 254.808 89.0545 254.92C88.5425 255.336 87.9265 255.656 87.2065 255.88C86.4865 256.088 85.7665 256.192 85.0465 256.192ZM93.3828 256.144C93.1428 256.144 92.9588 256.08 92.8308 255.952C92.7028 255.824 92.6388 255.64 92.6388 255.4V244.96C92.6388 244.704 92.7028 244.512 92.8308 244.384C92.9588 244.256 93.1428 244.192 93.3828 244.192C93.6068 244.192 93.7747 244.256 93.8867 244.384C94.0148 244.512 94.0788 244.704 94.0788 244.96V247.216L93.8148 247.072C94.1348 246.112 94.6788 245.384 95.4468 244.888C96.2308 244.392 97.1268 244.144 98.1348 244.144C99.0628 244.144 99.8308 244.312 100.439 244.648C101.063 244.968 101.527 245.464 101.831 246.136C102.135 246.808 102.287 247.648 102.287 248.656V255.4C102.287 255.64 102.223 255.824 102.095 255.952C101.967 256.08 101.791 256.144 101.567 256.144C101.327 256.144 101.143 256.08 101.015 255.952C100.887 255.824 100.823 255.64 100.823 255.4V248.776C100.823 247.608 100.591 246.76 100.127 246.232C99.6628 245.688 98.9268 245.416 97.9188 245.416C96.7668 245.416 95.8388 245.776 95.1348 246.496C94.4468 247.2 94.1028 248.152 94.1028 249.352V255.4C94.1028 255.896 93.8628 256.144 93.3828 256.144ZM110.46 256.192C109.596 256.192 108.876 256.032 108.3 255.712C107.724 255.392 107.292 254.936 107.004 254.344C106.716 253.736 106.572 252.992 106.572 252.112V245.536H104.796C104.588 245.536 104.42 245.488 104.292 245.392C104.164 245.28 104.1 245.128 104.1 244.936C104.1 244.76 104.164 244.624 104.292 244.528C104.42 244.416 104.588 244.36 104.796 244.36H106.572V241.36C106.572 241.104 106.636 240.92 106.764 240.808C106.892 240.68 107.076 240.616 107.316 240.616C107.54 240.616 107.716 240.68 107.844 240.808C107.972 240.92 108.036 241.104 108.036 241.36V244.36H111.276C111.5 244.36 111.668 244.416 111.78 244.528C111.892 244.624 111.948 244.76 111.948 244.936C111.948 245.128 111.892 245.28 111.78 245.392C111.668 245.488 111.5 245.536 111.276 245.536H108.036V251.92C108.036 252.896 108.236 253.64 108.636 254.152C109.036 254.664 109.7 254.92 110.628 254.92C110.948 254.92 111.212 254.888 111.42 254.824C111.644 254.744 111.828 254.704 111.972 254.704C112.084 254.704 112.18 254.752 112.26 254.848C112.356 254.944 112.404 255.096 112.404 255.304C112.404 255.432 112.372 255.56 112.308 255.688C112.26 255.816 112.164 255.896 112.02 255.928C111.844 255.992 111.604 256.048 111.3 256.096C110.996 256.16 110.716 256.192 110.46 256.192ZM119.054 256.192C117.854 256.192 116.822 255.952 115.958 255.472C115.094 254.992 114.43 254.304 113.966 253.408C113.502 252.512 113.27 251.448 113.27 250.216C113.27 249 113.502 247.944 113.966 247.048C114.43 246.136 115.07 245.424 115.886 244.912C116.718 244.4 117.67 244.144 118.742 244.144C119.526 244.144 120.214 244.28 120.806 244.552C121.414 244.808 121.926 245.184 122.342 245.68C122.774 246.16 123.102 246.752 123.326 247.456C123.55 248.144 123.662 248.928 123.662 249.808C123.662 250.032 123.598 250.2 123.47 250.312C123.358 250.424 123.198 250.48 122.99 250.48H114.326V249.4H122.75L122.366 249.712C122.366 248.784 122.23 248 121.958 247.36C121.686 246.704 121.278 246.2 120.734 245.848C120.206 245.496 119.55 245.32 118.766 245.32C117.886 245.32 117.142 245.528 116.534 245.944C115.926 246.344 115.47 246.904 115.166 247.624C114.862 248.328 114.71 249.144 114.71 250.072V250.192C114.71 251.728 115.086 252.912 115.838 253.744C116.59 254.56 117.646 254.968 119.006 254.968C119.598 254.968 120.166 254.888 120.71 254.728C121.27 254.568 121.814 254.296 122.342 253.912C122.502 253.8 122.654 253.744 122.798 253.744C122.958 253.744 123.086 253.784 123.182 253.864C123.294 253.944 123.366 254.048 123.398 254.176C123.446 254.288 123.438 254.416 123.374 254.56C123.326 254.688 123.222 254.808 123.062 254.92C122.55 255.336 121.934 255.656 121.214 255.88C120.494 256.088 119.774 256.192 119.054 256.192ZM127.391 256.144C127.151 256.144 126.967 256.08 126.839 255.952C126.711 255.824 126.647 255.64 126.647 255.4V244.96C126.647 244.704 126.711 244.512 126.839 244.384C126.967 244.256 127.151 244.192 127.391 244.192C127.615 244.192 127.783 244.256 127.895 244.384C128.023 244.512 128.087 244.704 128.087 244.96V247.096H127.847C128.135 246.152 128.647 245.424 129.383 244.912C130.135 244.4 131.031 244.136 132.071 244.12C132.263 244.104 132.423 244.144 132.551 244.24C132.679 244.336 132.743 244.488 132.743 244.696C132.759 244.92 132.711 245.096 132.599 245.224C132.487 245.336 132.303 245.408 132.047 245.44L131.711 245.464C130.575 245.576 129.695 245.952 129.071 246.592C128.447 247.232 128.135 248.096 128.135 249.184V255.4C128.135 255.64 128.071 255.824 127.943 255.952C127.831 256.08 127.647 256.144 127.391 256.144ZM143.345 260.464C143.153 260.464 143.001 260.408 142.889 260.296C142.777 260.2 142.713 260.064 142.697 259.888C142.697 259.728 142.729 259.56 142.793 259.384L144.449 255.616V256.288L139.745 245.296C139.665 245.104 139.633 244.928 139.649 244.768C139.681 244.592 139.753 244.456 139.865 244.36C139.993 244.248 140.169 244.192 140.393 244.192C140.601 244.192 140.753 244.24 140.849 244.336C140.961 244.432 141.057 244.584 141.137 244.792L145.409 255.136H144.809L149.081 244.792C149.177 244.568 149.281 244.416 149.393 244.336C149.505 244.24 149.665 244.192 149.873 244.192C150.081 244.192 150.233 244.248 150.329 244.36C150.441 244.456 150.505 244.584 150.521 244.744C150.537 244.904 150.505 245.08 150.425 245.272L144.161 259.888C144.065 260.112 143.953 260.264 143.825 260.344C143.713 260.424 143.553 260.464 143.345 260.464ZM157.599 256.192C156.511 256.192 155.567 255.944 154.767 255.448C153.967 254.952 153.343 254.256 152.895 253.36C152.463 252.464 152.247 251.4 152.247 250.168C152.247 249.256 152.367 248.432 152.607 247.696C152.863 246.96 153.223 246.328 153.687 245.8C154.167 245.256 154.735 244.848 155.391 244.576C156.063 244.288 156.799 244.144 157.599 244.144C158.703 244.144 159.655 244.392 160.455 244.888C161.255 245.384 161.871 246.088 162.303 247C162.751 247.896 162.975 248.952 162.975 250.168C162.975 251.096 162.847 251.928 162.591 252.664C162.351 253.4 161.991 254.032 161.511 254.56C161.047 255.088 160.487 255.496 159.831 255.784C159.175 256.056 158.431 256.192 157.599 256.192ZM157.599 254.968C158.399 254.968 159.087 254.784 159.663 254.416C160.255 254.032 160.703 253.48 161.007 252.76C161.327 252.04 161.487 251.176 161.487 250.168C161.487 248.648 161.135 247.472 160.431 246.64C159.743 245.808 158.799 245.392 157.599 245.392C156.815 245.392 156.127 245.584 155.535 245.968C154.959 246.336 154.511 246.88 154.191 247.6C153.887 248.304 153.735 249.16 153.735 250.168C153.735 251.704 154.087 252.888 154.791 253.72C155.495 254.552 156.431 254.968 157.599 254.968ZM170.196 256.192C169.268 256.192 168.492 256.024 167.868 255.688C167.26 255.352 166.804 254.848 166.5 254.176C166.196 253.504 166.044 252.672 166.044 251.68V244.96C166.044 244.704 166.108 244.512 166.236 244.384C166.364 244.256 166.548 244.192 166.788 244.192C167.012 244.192 167.188 244.256 167.316 244.384C167.444 244.512 167.508 244.704 167.508 244.96V251.608C167.508 252.728 167.74 253.568 168.204 254.128C168.668 254.672 169.396 254.944 170.388 254.944C171.476 254.944 172.356 254.584 173.028 253.864C173.7 253.128 174.036 252.168 174.036 250.984V244.96C174.036 244.704 174.1 244.512 174.228 244.384C174.356 244.256 174.54 244.192 174.78 244.192C175.004 244.192 175.18 244.256 175.308 244.384C175.436 244.512 175.5 244.704 175.5 244.96V255.4C175.5 255.896 175.268 256.144 174.804 256.144C174.58 256.144 174.404 256.08 174.276 255.952C174.148 255.824 174.084 255.64 174.084 255.4V253.024L174.372 253.192C174.068 254.168 173.54 254.912 172.788 255.424C172.036 255.936 171.172 256.192 170.196 256.192ZM180.102 256.144C179.862 256.144 179.678 256.08 179.55 255.952C179.422 255.824 179.358 255.64 179.358 255.4V244.96C179.358 244.704 179.422 244.512 179.55 244.384C179.678 244.256 179.862 244.192 180.102 244.192C180.326 244.192 180.493 244.256 180.605 244.384C180.734 244.512 180.798 244.704 180.798 244.96V247.096H180.558C180.846 246.152 181.358 245.424 182.094 244.912C182.846 244.4 183.742 244.136 184.782 244.12C184.974 244.104 185.134 244.144 185.262 244.24C185.39 244.336 185.454 244.488 185.454 244.696C185.47 244.92 185.422 245.096 185.31 245.224C185.198 245.336 185.014 245.408 184.758 245.44L184.422 245.464C183.286 245.576 182.406 245.952 181.782 246.592C181.158 247.232 180.846 248.096 180.846 249.184V255.4C180.846 255.64 180.782 255.824 180.654 255.952C180.542 256.08 180.358 256.144 180.102 256.144ZM198.048 256.192C197.008 256.192 196.096 255.952 195.312 255.472C194.544 254.976 193.944 254.28 193.512 253.384C193.096 252.472 192.888 251.4 192.888 250.168C192.888 248.936 193.096 247.872 193.512 246.976C193.928 246.08 194.52 245.384 195.288 244.888C196.072 244.392 196.992 244.144 198.048 244.144C199.136 244.144 200.064 244.424 200.832 244.984C201.6 245.544 202.112 246.296 202.368 247.24H202.104V239.68C202.104 239.424 202.168 239.24 202.296 239.128C202.424 239 202.6 238.936 202.824 238.936C203.064 238.936 203.248 239 203.376 239.128C203.504 239.24 203.568 239.424 203.568 239.68V255.4C203.568 255.64 203.504 255.824 203.376 255.952C203.248 256.08 203.072 256.144 202.848 256.144C202.608 256.144 202.424 256.08 202.296 255.952C202.168 255.824 202.104 255.64 202.104 255.4V252.928L202.368 253.096C202.112 254.04 201.6 254.792 200.832 255.352C200.064 255.912 199.136 256.192 198.048 256.192ZM198.24 254.968C199.04 254.968 199.728 254.784 200.304 254.416C200.896 254.032 201.344 253.48 201.648 252.76C201.968 252.04 202.128 251.176 202.128 250.168C202.128 248.648 201.776 247.472 201.072 246.64C200.384 245.808 199.44 245.392 198.24 245.392C197.456 245.392 196.768 245.584 196.176 245.968C195.6 246.336 195.152 246.88 194.832 247.6C194.528 248.304 194.376 249.16 194.376 250.168C194.376 251.704 194.728 252.888 195.432 253.72C196.136 254.552 197.072 254.968 198.24 254.968ZM212.476 256.192C211.276 256.192 210.244 255.952 209.38 255.472C208.516 254.992 207.852 254.304 207.388 253.408C206.924 252.512 206.692 251.448 206.692 250.216C206.692 249 206.924 247.944 207.388 247.048C207.852 246.136 208.492 245.424 209.308 244.912C210.14 244.4 211.092 244.144 212.164 244.144C212.948 244.144 213.636 244.28 214.228 244.552C214.836 244.808 215.348 245.184 215.764 245.68C216.196 246.16 216.524 246.752 216.748 247.456C216.972 248.144 217.084 248.928 217.084 249.808C217.084 250.032 217.02 250.2 216.892 250.312C216.78 250.424 216.62 250.48 216.412 250.48H207.748V249.4H216.172L215.788 249.712C215.788 248.784 215.652 248 215.38 247.36C215.108 246.704 214.7 246.2 214.156 245.848C213.628 245.496 212.972 245.32 212.188 245.32C211.308 245.32 210.564 245.528 209.956 245.944C209.348 246.344 208.892 246.904 208.588 247.624C208.284 248.328 208.132 249.144 208.132 250.072V250.192C208.132 251.728 208.508 252.912 209.26 253.744C210.012 254.56 211.068 254.968 212.428 254.968C213.02 254.968 213.588 254.888 214.132 254.728C214.692 254.568 215.236 254.296 215.764 253.912C215.924 253.8 216.076 253.744 216.22 253.744C216.38 253.744 216.508 253.784 216.604 253.864C216.716 253.944 216.788 254.048 216.82 254.176C216.868 254.288 216.86 254.416 216.796 254.56C216.748 254.688 216.644 254.808 216.484 254.92C215.972 255.336 215.356 255.656 214.636 255.88C213.916 256.088 213.196 256.192 212.476 256.192ZM224.46 256.192C223.596 256.192 222.876 256.032 222.3 255.712C221.724 255.392 221.292 254.936 221.004 254.344C220.716 253.736 220.572 252.992 220.572 252.112V245.536H218.796C218.588 245.536 218.42 245.488 218.292 245.392C218.164 245.28 218.1 245.128 218.1 244.936C218.1 244.76 218.164 244.624 218.292 244.528C218.42 244.416 218.588 244.36 218.796 244.36H220.572V241.36C220.572 241.104 220.636 240.92 220.764 240.808C220.892 240.68 221.076 240.616 221.316 240.616C221.54 240.616 221.716 240.68 221.844 240.808C221.972 240.92 222.036 241.104 222.036 241.36V244.36H225.276C225.5 244.36 225.668 244.416 225.78 244.528C225.892 244.624 225.948 244.76 225.948 244.936C225.948 245.128 225.892 245.28 225.78 245.392C225.668 245.488 225.5 245.536 225.276 245.536H222.036V251.92C222.036 252.896 222.236 253.64 222.636 254.152C223.036 254.664 223.7 254.92 224.628 254.92C224.948 254.92 225.212 254.888 225.42 254.824C225.644 254.744 225.828 254.704 225.972 254.704C226.084 254.704 226.18 254.752 226.26 254.848C226.356 254.944 226.404 255.096 226.404 255.304C226.404 255.432 226.372 255.56 226.308 255.688C226.26 255.816 226.164 255.896 226.02 255.928C225.844 255.992 225.604 256.048 225.3 256.096C224.996 256.16 224.716 256.192 224.46 256.192ZM231.708 256.192C230.924 256.192 230.22 256.04 229.596 255.736C228.988 255.432 228.5 255.016 228.132 254.488C227.78 253.96 227.604 253.368 227.604 252.712C227.604 251.848 227.82 251.168 228.252 250.672C228.684 250.176 229.412 249.832 230.436 249.64C231.46 249.432 232.868 249.328 234.66 249.328H235.692V250.408H234.684C233.243 250.408 232.116 250.472 231.3 250.6C230.5 250.712 229.94 250.928 229.62 251.248C229.3 251.568 229.14 252.016 229.14 252.592C229.14 253.312 229.388 253.896 229.884 254.344C230.38 254.792 231.052 255.016 231.9 255.016C232.588 255.016 233.188 254.856 233.7 254.536C234.228 254.2 234.644 253.744 234.948 253.168C235.252 252.592 235.404 251.936 235.404 251.2V248.464C235.404 247.392 235.188 246.616 234.756 246.136C234.324 245.64 233.636 245.392 232.692 245.392C232.084 245.392 231.492 245.472 230.916 245.632C230.356 245.792 229.756 246.048 229.116 246.4C228.94 246.496 228.78 246.528 228.636 246.496C228.508 246.464 228.404 246.4 228.324 246.304C228.26 246.208 228.212 246.096 228.18 245.968C228.164 245.824 228.188 245.688 228.252 245.56C228.316 245.432 228.428 245.328 228.588 245.248C229.26 244.88 229.94 244.608 230.628 244.432C231.332 244.24 232.012 244.144 232.668 244.144C233.612 244.144 234.388 244.304 234.996 244.624C235.62 244.944 236.076 245.424 236.364 246.064C236.668 246.704 236.82 247.528 236.82 248.536V255.4C236.82 255.64 236.764 255.824 236.652 255.952C236.54 256.08 236.372 256.144 236.148 256.144C235.924 256.144 235.748 256.08 235.62 255.952C235.492 255.824 235.428 255.64 235.428 255.4V253.192H235.668C235.524 253.816 235.268 254.352 234.9 254.8C234.532 255.248 234.076 255.592 233.532 255.832C232.988 256.072 232.38 256.192 231.708 256.192ZM241.391 256.096C241.151 256.096 240.967 256.024 240.839 255.88C240.711 255.736 240.647 255.544 240.647 255.304V245.032C240.647 244.776 240.711 244.584 240.839 244.456C240.967 244.328 241.151 244.264 241.391 244.264C241.615 244.264 241.791 244.328 241.919 244.456C242.047 244.584 242.111 244.776 242.111 245.032V255.304C242.111 255.544 242.047 255.736 241.919 255.88C241.807 256.024 241.631 256.096 241.391 256.096ZM241.391 241.36C241.055 241.36 240.791 241.272 240.599 241.096C240.423 240.92 240.335 240.672 240.335 240.352C240.335 240.032 240.423 239.792 240.599 239.632C240.791 239.456 241.055 239.368 241.391 239.368C241.727 239.368 241.983 239.456 242.159 239.632C242.351 239.792 242.447 240.032 242.447 240.352C242.447 240.672 242.351 240.92 242.159 241.096C241.983 241.272 241.727 241.36 241.391 241.36ZM249.327 256.192C248.255 256.192 247.423 255.856 246.831 255.184C246.255 254.512 245.967 253.56 245.967 252.328V239.68C245.967 239.424 246.031 239.24 246.159 239.128C246.287 239 246.471 238.936 246.711 238.936C246.935 238.936 247.111 239 247.239 239.128C247.367 239.24 247.431 239.424 247.431 239.68V252.16C247.431 253.088 247.615 253.784 247.983 254.248C248.351 254.696 248.887 254.92 249.591 254.92C249.751 254.92 249.887 254.912 249.999 254.896C250.111 254.88 250.223 254.872 250.335 254.872C250.479 254.856 250.583 254.888 250.647 254.968C250.727 255.032 250.767 255.176 250.767 255.4C250.767 255.624 250.711 255.792 250.599 255.904C250.487 256.016 250.303 256.096 250.047 256.144C249.935 256.16 249.815 256.168 249.687 256.168C249.575 256.184 249.455 256.192 249.327 256.192ZM256.485 256.192C255.765 256.192 255.045 256.096 254.325 255.904C253.621 255.712 252.949 255.384 252.309 254.92C252.181 254.84 252.093 254.744 252.045 254.632C252.013 254.504 252.005 254.376 252.021 254.248C252.053 254.12 252.109 254.016 252.189 253.936C252.285 253.84 252.397 253.784 252.525 253.768C252.653 253.752 252.789 253.792 252.933 253.888C253.557 254.304 254.165 254.592 254.757 254.752C255.349 254.912 255.941 254.992 256.533 254.992C257.509 254.992 258.253 254.808 258.765 254.44C259.277 254.072 259.533 253.576 259.533 252.952C259.533 252.44 259.365 252.048 259.029 251.776C258.709 251.488 258.181 251.256 257.445 251.08L255.357 250.6C254.349 250.376 253.605 250.016 253.125 249.52C252.645 249.008 252.405 248.352 252.405 247.552C252.405 246.864 252.581 246.264 252.933 245.752C253.301 245.24 253.813 244.848 254.469 244.576C255.141 244.288 255.909 244.144 256.773 244.144C257.477 244.144 258.149 244.248 258.789 244.456C259.429 244.664 259.989 244.984 260.469 245.416C260.597 245.512 260.677 245.624 260.709 245.752C260.757 245.88 260.757 246.008 260.709 246.136C260.677 246.248 260.613 246.344 260.517 246.424C260.421 246.504 260.309 246.544 260.181 246.544C260.053 246.544 259.917 246.496 259.773 246.4C259.309 246.048 258.821 245.792 258.309 245.632C257.797 245.456 257.277 245.368 256.749 245.368C255.821 245.368 255.101 245.56 254.589 245.944C254.093 246.328 253.845 246.848 253.845 247.504C253.845 248 253.997 248.4 254.301 248.704C254.621 249.008 255.117 249.24 255.789 249.4L257.877 249.88C258.917 250.12 259.693 250.48 260.205 250.96C260.717 251.424 260.973 252.056 260.973 252.856C260.973 253.88 260.565 254.696 259.749 255.304C258.949 255.896 257.861 256.192 256.485 256.192ZM273.801 256.192C273.017 256.192 272.313 256.04 271.689 255.736C271.081 255.432 270.593 255.016 270.225 254.488C269.873 253.96 269.697 253.368 269.697 252.712C269.697 251.848 269.913 251.168 270.345 250.672C270.777 250.176 271.505 249.832 272.529 249.64C273.553 249.432 274.961 249.328 276.753 249.328H277.785V250.408H276.777C275.337 250.408 274.209 250.472 273.393 250.6C272.593 250.712 272.033 250.928 271.713 251.248C271.393 251.568 271.233 252.016 271.233 252.592C271.233 253.312 271.481 253.896 271.977 254.344C272.473 254.792 273.145 255.016 273.993 255.016C274.681 255.016 275.281 254.856 275.793 254.536C276.321 254.2 276.737 253.744 277.041 253.168C277.345 252.592 277.497 251.936 277.497 251.2V248.464C277.497 247.392 277.281 246.616 276.849 246.136C276.417 245.64 275.729 245.392 274.785 245.392C274.177 245.392 273.585 245.472 273.009 245.632C272.449 245.792 271.849 246.048 271.209 246.4C271.033 246.496 270.873 246.528 270.729 246.496C270.601 246.464 270.497 246.4 270.417 246.304C270.353 246.208 270.305 246.096 270.273 245.968C270.257 245.824 270.281 245.688 270.345 245.56C270.409 245.432 270.521 245.328 270.681 245.248C271.353 244.88 272.033 244.608 272.721 244.432C273.425 244.24 274.105 244.144 274.761 244.144C275.705 244.144 276.481 244.304 277.089 244.624C277.713 244.944 278.169 245.424 278.457 246.064C278.761 246.704 278.913 247.528 278.913 248.536V255.4C278.913 255.64 278.857 255.824 278.745 255.952C278.633 256.08 278.465 256.144 278.241 256.144C278.017 256.144 277.841 256.08 277.713 255.952C277.585 255.824 277.521 255.64 277.521 255.4V253.192H277.761C277.617 253.816 277.361 254.352 276.993 254.8C276.625 255.248 276.169 255.592 275.625 255.832C275.081 256.072 274.473 256.192 273.801 256.192ZM283.484 256.144C283.244 256.144 283.06 256.08 282.932 255.952C282.804 255.824 282.74 255.64 282.74 255.4V244.96C282.74 244.704 282.804 244.512 282.932 244.384C283.06 244.256 283.244 244.192 283.484 244.192C283.708 244.192 283.876 244.256 283.988 244.384C284.116 244.512 284.18 244.704 284.18 244.96V247.216L283.916 247.072C284.236 246.112 284.78 245.384 285.548 244.888C286.332 244.392 287.228 244.144 288.236 244.144C289.164 244.144 289.932 244.312 290.54 244.648C291.164 244.968 291.628 245.464 291.932 246.136C292.236 246.808 292.388 247.648 292.388 248.656V255.4C292.388 255.64 292.324 255.824 292.196 255.952C292.068 256.08 291.892 256.144 291.668 256.144C291.428 256.144 291.244 256.08 291.116 255.952C290.988 255.824 290.924 255.64 290.924 255.4V248.776C290.924 247.608 290.692 246.76 290.228 246.232C289.764 245.688 289.028 245.416 288.02 245.416C286.868 245.416 285.94 245.776 285.236 246.496C284.548 247.2 284.204 248.152 284.204 249.352V255.4C284.204 255.896 283.964 256.144 283.484 256.144ZM300.61 256.192C299.57 256.192 298.658 255.952 297.874 255.472C297.106 254.976 296.506 254.28 296.074 253.384C295.658 252.472 295.45 251.4 295.45 250.168C295.45 248.936 295.658 247.872 296.074 246.976C296.49 246.08 297.082 245.384 297.85 244.888C298.634 244.392 299.554 244.144 300.61 244.144C301.698 244.144 302.626 244.424 303.394 244.984C304.162 245.544 304.674 246.296 304.93 247.24H304.666V239.68C304.666 239.424 304.73 239.24 304.858 239.128C304.986 239 305.162 238.936 305.386 238.936C305.626 238.936 305.81 239 305.938 239.128C306.066 239.24 306.13 239.424 306.13 239.68V255.4C306.13 255.64 306.066 255.824 305.938 255.952C305.81 256.08 305.634 256.144 305.41 256.144C305.17 256.144 304.986 256.08 304.858 255.952C304.73 255.824 304.666 255.64 304.666 255.4V252.928L304.93 253.096C304.674 254.04 304.162 254.792 303.394 255.352C302.626 255.912 301.698 256.192 300.61 256.192ZM300.802 254.968C301.602 254.968 302.29 254.784 302.866 254.416C303.458 254.032 303.906 253.48 304.21 252.76C304.53 252.04 304.69 251.176 304.69 250.168C304.69 248.648 304.338 247.472 303.634 246.64C302.946 245.808 302.002 245.392 300.802 245.392C300.018 245.392 299.33 245.584 298.738 245.968C298.162 246.336 297.714 246.88 297.394 247.6C297.09 248.304 296.938 249.16 296.938 250.168C296.938 251.704 297.29 252.888 297.994 253.72C298.698 254.552 299.634 254.968 300.802 254.968ZM319.382 256.192C318.31 256.192 317.478 255.856 316.886 255.184C316.31 254.512 316.022 253.56 316.022 252.328V239.68C316.022 239.424 316.086 239.24 316.214 239.128C316.342 239 316.526 238.936 316.766 238.936C316.99 238.936 317.166 239 317.294 239.128C317.422 239.24 317.486 239.424 317.486 239.68V252.16C317.486 253.088 317.67 253.784 318.038 254.248C318.406 254.696 318.942 254.92 319.646 254.92C319.806 254.92 319.942 254.912 320.054 254.896C320.166 254.88 320.278 254.872 320.39 254.872C320.534 254.856 320.638 254.888 320.702 254.968C320.782 255.032 320.822 255.176 320.822 255.4C320.822 255.624 320.766 255.792 320.654 255.904C320.542 256.016 320.358 256.096 320.102 256.144C319.99 256.16 319.87 256.168 319.742 256.168C319.63 256.184 319.51 256.192 319.382 256.192ZM327.38 256.192C326.292 256.192 325.348 255.944 324.548 255.448C323.748 254.952 323.124 254.256 322.676 253.36C322.244 252.464 322.028 251.4 322.028 250.168C322.028 249.256 322.148 248.432 322.388 247.696C322.644 246.96 323.004 246.328 323.468 245.8C323.948 245.256 324.516 244.848 325.172 244.576C325.844 244.288 326.58 244.144 327.38 244.144C328.484 244.144 329.436 244.392 330.236 244.888C331.036 245.384 331.652 246.088 332.084 247C332.532 247.896 332.756 248.952 332.756 250.168C332.756 251.096 332.628 251.928 332.372 252.664C332.132 253.4 331.772 254.032 331.292 254.56C330.828 255.088 330.268 255.496 329.612 255.784C328.956 256.056 328.212 256.192 327.38 256.192ZM327.38 254.968C328.18 254.968 328.868 254.784 329.444 254.416C330.036 254.032 330.484 253.48 330.788 252.76C331.108 252.04 331.268 251.176 331.268 250.168C331.268 248.648 330.916 247.472 330.212 246.64C329.524 245.808 328.58 245.392 327.38 245.392C326.596 245.392 325.908 245.584 325.316 245.968C324.74 246.336 324.292 246.88 323.972 247.6C323.668 248.304 323.516 249.16 323.516 250.168C323.516 251.704 323.868 252.888 324.572 253.72C325.276 254.552 326.212 254.968 327.38 254.968ZM340.937 260.512C340.073 260.512 339.233 260.4 338.417 260.176C337.617 259.968 336.889 259.624 336.233 259.144C336.105 259.064 336.017 258.96 335.969 258.832C335.937 258.704 335.937 258.576 335.969 258.448C336.001 258.336 336.057 258.232 336.137 258.136C336.233 258.04 336.337 257.984 336.449 257.968C336.577 257.952 336.705 257.976 336.833 258.04C337.537 258.504 338.209 258.824 338.849 259C339.505 259.192 340.185 259.288 340.889 259.288C342.057 259.288 342.945 258.96 343.553 258.304C344.161 257.664 344.465 256.744 344.465 255.544V252.568H344.705C344.465 253.56 343.953 254.336 343.169 254.896C342.385 255.456 341.457 255.736 340.385 255.736C339.313 255.736 338.385 255.496 337.601 255.016C336.817 254.52 336.209 253.84 335.777 252.976C335.361 252.096 335.153 251.08 335.153 249.928C335.153 249.064 335.273 248.28 335.513 247.576C335.753 246.872 336.097 246.264 336.545 245.752C337.009 245.24 337.561 244.848 338.201 244.576C338.841 244.288 339.569 244.144 340.385 244.144C341.457 244.144 342.385 244.432 343.169 245.008C343.953 245.568 344.457 246.328 344.681 247.288L344.441 247.432V244.96C344.441 244.704 344.505 244.512 344.633 244.384C344.761 244.256 344.937 244.192 345.161 244.192C345.401 244.192 345.577 244.256 345.689 244.384C345.817 244.512 345.881 244.704 345.881 244.96V255.328C345.881 257.04 345.465 258.328 344.633 259.192C343.801 260.072 342.569 260.512 340.937 260.512ZM340.553 254.488C341.353 254.488 342.041 254.304 342.617 253.936C343.209 253.552 343.665 253.024 343.985 252.352C344.305 251.664 344.465 250.856 344.465 249.928C344.465 248.536 344.113 247.432 343.409 246.616C342.705 245.8 341.753 245.392 340.553 245.392C339.753 245.392 339.057 245.576 338.465 245.944C337.873 246.312 337.417 246.84 337.097 247.528C336.793 248.2 336.641 249 336.641 249.928C336.641 251.32 336.993 252.432 337.697 253.264C338.401 254.08 339.353 254.488 340.553 254.488ZM350.492 256.096C350.252 256.096 350.068 256.024 349.94 255.88C349.812 255.736 349.748 255.544 349.748 255.304V245.032C349.748 244.776 349.812 244.584 349.94 244.456C350.068 244.328 350.252 244.264 350.492 244.264C350.716 244.264 350.892 244.328 351.02 244.456C351.148 244.584 351.212 244.776 351.212 245.032V255.304C351.212 255.544 351.148 255.736 351.02 255.88C350.908 256.024 350.732 256.096 350.492 256.096ZM350.492 241.36C350.156 241.36 349.892 241.272 349.7 241.096C349.524 240.92 349.436 240.672 349.436 240.352C349.436 240.032 349.524 239.792 349.7 239.632C349.892 239.456 350.156 239.368 350.492 239.368C350.828 239.368 351.084 239.456 351.26 239.632C351.452 239.792 351.548 240.032 351.548 240.352C351.548 240.672 351.452 240.92 351.26 241.096C351.084 241.272 350.828 241.36 350.492 241.36ZM355.812 256.144C355.572 256.144 355.388 256.08 355.26 255.952C355.132 255.824 355.068 255.64 355.068 255.4V244.96C355.068 244.704 355.132 244.512 355.26 244.384C355.388 244.256 355.572 244.192 355.812 244.192C356.036 244.192 356.204 244.256 356.316 244.384C356.444 244.512 356.508 244.704 356.508 244.96V247.216L356.244 247.072C356.564 246.112 357.108 245.384 357.876 244.888C358.66 244.392 359.556 244.144 360.564 244.144C361.492 244.144 362.26 244.312 362.868 244.648C363.492 244.968 363.956 245.464 364.26 246.136C364.564 246.808 364.716 247.648 364.716 248.656V255.4C364.716 255.64 364.652 255.824 364.524 255.952C364.396 256.08 364.22 256.144 363.996 256.144C363.756 256.144 363.572 256.08 363.444 255.952C363.316 255.824 363.252 255.64 363.252 255.4V248.776C363.252 247.608 363.02 246.76 362.556 246.232C362.092 245.688 361.356 245.416 360.348 245.416C359.196 245.416 358.268 245.776 357.564 246.496C356.876 247.2 356.532 248.152 356.532 249.352V255.4C356.532 255.896 356.292 256.144 355.812 256.144ZM7.312 289.192C6.448 289.192 5.728 289.032 5.152 288.712C4.576 288.392 4.144 287.936 3.856 287.344C3.568 286.736 3.424 285.992 3.424 285.112V278.536H1.648C1.44 278.536 1.272 278.488 1.144 278.392C1.016 278.28 0.952 278.128 0.952 277.936C0.952 277.76 1.016 277.624 1.144 277.528C1.272 277.416 1.44 277.36 1.648 277.36H3.424V274.36C3.424 274.104 3.488 273.92 3.616 273.808C3.744 273.68 3.928 273.616 4.168 273.616C4.392 273.616 4.568 273.68 4.696 273.808C4.824 273.92 4.888 274.104 4.888 274.36V277.36H8.128C8.352 277.36 8.52 277.416 8.632 277.528C8.744 277.624 8.8 277.76 8.8 277.936C8.8 278.128 8.744 278.28 8.632 278.392C8.52 278.488 8.352 278.536 8.128 278.536H4.888V284.92C4.888 285.896 5.088 286.64 5.488 287.152C5.888 287.664 6.552 287.92 7.48 287.92C7.8 287.92 8.064 287.888 8.272 287.824C8.496 287.744 8.68 287.704 8.824 287.704C8.936 287.704 9.032 287.752 9.112 287.848C9.208 287.944 9.256 288.096 9.256 288.304C9.256 288.432 9.224 288.56 9.16 288.688C9.112 288.816 9.016 288.896 8.872 288.928C8.696 288.992 8.456 289.048 8.152 289.096C7.848 289.16 7.568 289.192 7.312 289.192ZM15.4739 289.192C14.3859 289.192 13.4419 288.944 12.6419 288.448C11.8419 287.952 11.2179 287.256 10.7699 286.36C10.3379 285.464 10.1219 284.4 10.1219 283.168C10.1219 282.256 10.2419 281.432 10.4819 280.696C10.7379 279.96 11.0979 279.328 11.5619 278.8C12.0419 278.256 12.6099 277.848 13.2659 277.576C13.9379 277.288 14.6739 277.144 15.4739 277.144C16.5779 277.144 17.5299 277.392 18.3299 277.888C19.1299 278.384 19.7459 279.088 20.1779 280C20.6259 280.896 20.8499 281.952 20.8499 283.168C20.8499 284.096 20.7219 284.928 20.4659 285.664C20.2259 286.4 19.8659 287.032 19.3859 287.56C18.9219 288.088 18.3619 288.496 17.7059 288.784C17.0499 289.056 16.3059 289.192 15.4739 289.192ZM15.4739 287.968C16.2739 287.968 16.9619 287.784 17.5379 287.416C18.1299 287.032 18.5779 286.48 18.8819 285.76C19.2019 285.04 19.3619 284.176 19.3619 283.168C19.3619 281.648 19.0099 280.472 18.3059 279.64C17.6179 278.808 16.6739 278.392 15.4739 278.392C14.6899 278.392 14.0019 278.584 13.4099 278.968C12.8339 279.336 12.3859 279.88 12.0659 280.6C11.7619 281.304 11.6099 282.16 11.6099 283.168C11.6099 284.704 11.9619 285.888 12.6659 286.72C13.3699 287.552 14.3059 287.968 15.4739 287.968ZM34.7658 289.192C33.6298 289.192 32.6538 288.944 31.8378 288.448C31.0218 287.936 30.3898 287.224 29.9418 286.312C29.5098 285.384 29.2938 284.312 29.2938 283.096C29.2938 282.168 29.4138 281.344 29.6538 280.624C29.9098 279.888 30.2698 279.264 30.7338 278.752C31.2138 278.24 31.7898 277.848 32.4618 277.576C33.1498 277.288 33.9178 277.144 34.7658 277.144C35.3578 277.144 35.9658 277.248 36.5898 277.456C37.2138 277.648 37.7818 277.976 38.2938 278.44C38.4058 278.536 38.4778 278.648 38.5098 278.776C38.5418 278.904 38.5338 279.032 38.4858 279.16C38.4378 279.272 38.3658 279.368 38.2698 279.448C38.1738 279.512 38.0538 279.552 37.9098 279.568C37.7818 279.568 37.6458 279.504 37.5018 279.376C37.0538 279.008 36.5978 278.76 36.1338 278.632C35.6858 278.488 35.2458 278.416 34.8138 278.416C34.1578 278.416 33.5818 278.52 33.0858 278.728C32.5898 278.936 32.1658 279.24 31.8138 279.64C31.4778 280.04 31.2218 280.536 31.0458 281.128C30.8698 281.704 30.7818 282.368 30.7818 283.12C30.7818 284.624 31.1258 285.808 31.8138 286.672C32.5178 287.52 33.5178 287.944 34.8138 287.944C35.2458 287.944 35.6858 287.88 36.1338 287.752C36.5978 287.608 37.0538 287.352 37.5018 286.984C37.6458 286.856 37.7818 286.8 37.9098 286.816C38.0538 286.816 38.1738 286.856 38.2698 286.936C38.3658 287 38.4298 287.096 38.4618 287.224C38.5098 287.336 38.5178 287.456 38.4858 287.584C38.4538 287.712 38.3818 287.824 38.2698 287.92C37.7738 288.384 37.2138 288.712 36.5898 288.904C35.9658 289.096 35.3578 289.192 34.7658 289.192ZM45.427 289.192C44.339 289.192 43.395 288.944 42.595 288.448C41.795 287.952 41.171 287.256 40.723 286.36C40.291 285.464 40.075 284.4 40.075 283.168C40.075 282.256 40.195 281.432 40.435 280.696C40.691 279.96 41.051 279.328 41.515 278.8C41.995 278.256 42.563 277.848 43.219 277.576C43.891 277.288 44.627 277.144 45.427 277.144C46.531 277.144 47.483 277.392 48.283 277.888C49.083 278.384 49.699 279.088 50.131 280C50.579 280.896 50.803 281.952 50.803 283.168C50.803 284.096 50.675 284.928 50.419 285.664C50.179 286.4 49.819 287.032 49.339 287.56C48.875 288.088 48.315 288.496 47.659 288.784C47.003 289.056 46.259 289.192 45.427 289.192ZM45.427 287.968C46.227 287.968 46.915 287.784 47.491 287.416C48.083 287.032 48.531 286.48 48.835 285.76C49.155 285.04 49.315 284.176 49.315 283.168C49.315 281.648 48.963 280.472 48.259 279.64C47.571 278.808 46.627 278.392 45.427 278.392C44.643 278.392 43.955 278.584 43.363 278.968C42.787 279.336 42.339 279.88 42.019 280.6C41.715 281.304 41.563 282.16 41.563 283.168C41.563 284.704 41.915 285.888 42.619 286.72C43.323 287.552 44.259 287.968 45.427 287.968ZM54.664 289.144C54.424 289.144 54.24 289.08 54.112 288.952C53.984 288.824 53.92 288.64 53.92 288.4V277.96C53.92 277.704 53.984 277.512 54.112 277.384C54.24 277.256 54.424 277.192 54.664 277.192C54.888 277.192 55.056 277.256 55.168 277.384C55.296 277.512 55.36 277.704 55.36 277.96V280.216L55.096 280.072C55.416 279.112 55.96 278.384 56.728 277.888C57.512 277.392 58.408 277.144 59.416 277.144C60.344 277.144 61.112 277.312 61.72 277.648C62.344 277.968 62.808 278.464 63.112 279.136C63.416 279.808 63.568 280.648 63.568 281.656V288.4C63.568 288.64 63.504 288.824 63.376 288.952C63.248 289.08 63.072 289.144 62.848 289.144C62.608 289.144 62.424 289.08 62.296 288.952C62.168 288.824 62.104 288.64 62.104 288.4V281.776C62.104 280.608 61.872 279.76 61.408 279.232C60.944 278.688 60.208 278.416 59.2 278.416C58.048 278.416 57.12 278.776 56.416 279.496C55.728 280.2 55.384 281.152 55.384 282.352V288.4C55.384 288.896 55.144 289.144 54.664 289.144ZM68.0937 289.096C67.8537 289.096 67.6697 289.024 67.5417 288.88C67.4137 288.736 67.3497 288.544 67.3497 288.304V278.032C67.3497 277.776 67.4137 277.584 67.5417 277.456C67.6697 277.328 67.8537 277.264 68.0937 277.264C68.3177 277.264 68.4937 277.328 68.6217 277.456C68.7497 277.584 68.8137 277.776 68.8137 278.032V288.304C68.8137 288.544 68.7497 288.736 68.6217 288.88C68.5097 289.024 68.3337 289.096 68.0937 289.096ZM68.0937 274.36C67.7577 274.36 67.4937 274.272 67.3017 274.096C67.1257 273.92 67.0377 273.672 67.0377 273.352C67.0377 273.032 67.1257 272.792 67.3017 272.632C67.4937 272.456 67.7577 272.368 68.0937 272.368C68.4297 272.368 68.6857 272.456 68.8617 272.632C69.0537 272.792 69.1497 273.032 69.1497 273.352C69.1497 273.672 69.0537 273.92 68.8617 274.096C68.6857 274.272 68.4297 274.36 68.0937 274.36ZM73.414 289.144C73.174 289.144 72.99 289.08 72.862 288.952C72.734 288.824 72.67 288.64 72.67 288.4V277.96C72.67 277.704 72.734 277.512 72.862 277.384C72.99 277.256 73.174 277.192 73.414 277.192C73.638 277.192 73.806 277.256 73.918 277.384C74.046 277.512 74.11 277.704 74.11 277.96V280.216L73.846 280.072C74.166 279.112 74.71 278.384 75.478 277.888C76.262 277.392 77.158 277.144 78.166 277.144C79.094 277.144 79.862 277.312 80.47 277.648C81.094 277.968 81.558 278.464 81.862 279.136C82.166 279.808 82.318 280.648 82.318 281.656V288.4C82.318 288.64 82.254 288.824 82.126 288.952C81.998 289.08 81.822 289.144 81.598 289.144C81.358 289.144 81.174 289.08 81.046 288.952C80.918 288.824 80.854 288.64 80.854 288.4V281.776C80.854 280.608 80.622 279.76 80.158 279.232C79.694 278.688 78.958 278.416 77.95 278.416C76.798 278.416 75.87 278.776 75.166 279.496C74.478 280.2 74.134 281.152 74.134 282.352V288.4C74.134 288.896 73.894 289.144 73.414 289.144ZM90.2037 289.192C89.2757 289.192 88.4997 289.024 87.8757 288.688C87.2677 288.352 86.8117 287.848 86.5077 287.176C86.2037 286.504 86.0517 285.672 86.0517 284.68V277.96C86.0517 277.704 86.1157 277.512 86.2437 277.384C86.3717 277.256 86.5557 277.192 86.7957 277.192C87.0197 277.192 87.1957 277.256 87.3237 277.384C87.4517 277.512 87.5157 277.704 87.5157 277.96V284.608C87.5157 285.728 87.7477 286.568 88.2117 287.128C88.6757 287.672 89.4037 287.944 90.3957 287.944C91.4837 287.944 92.3637 287.584 93.0357 286.864C93.7077 286.128 94.0437 285.168 94.0437 283.984V277.96C94.0437 277.704 94.1077 277.512 94.2357 277.384C94.3637 277.256 94.5477 277.192 94.7877 277.192C95.0117 277.192 95.1877 277.256 95.3157 277.384C95.4437 277.512 95.5077 277.704 95.5077 277.96V288.4C95.5077 288.896 95.2757 289.144 94.8117 289.144C94.5877 289.144 94.4117 289.08 94.2837 288.952C94.1557 288.824 94.0917 288.64 94.0917 288.4V286.024L94.3797 286.192C94.0757 287.168 93.5477 287.912 92.7957 288.424C92.0437 288.936 91.1797 289.192 90.2037 289.192ZM104.429 289.192C103.229 289.192 102.197 288.952 101.333 288.472C100.469 287.992 99.8053 287.304 99.3413 286.408C98.8773 285.512 98.6453 284.448 98.6453 283.216C98.6453 282 98.8773 280.944 99.3413 280.048C99.8053 279.136 100.445 278.424 101.261 277.912C102.093 277.4 103.045 277.144 104.117 277.144C104.901 277.144 105.589 277.28 106.181 277.552C106.789 277.808 107.301 278.184 107.717 278.68C108.149 279.16 108.477 279.752 108.701 280.456C108.925 281.144 109.037 281.928 109.037 282.808C109.037 283.032 108.973 283.2 108.845 283.312C108.733 283.424 108.573 283.48 108.365 283.48H99.7013V282.4H108.125L107.741 282.712C107.741 281.784 107.605 281 107.333 280.36C107.061 279.704 106.653 279.2 106.109 278.848C105.581 278.496 104.925 278.32 104.141 278.32C103.261 278.32 102.517 278.528 101.909 278.944C101.301 279.344 100.845 279.904 100.541 280.624C100.237 281.328 100.085 282.144 100.085 283.072V283.192C100.085 284.728 100.461 285.912 101.213 286.744C101.965 287.56 103.021 287.968 104.381 287.968C104.973 287.968 105.541 287.888 106.085 287.728C106.645 287.568 107.189 287.296 107.717 286.912C107.877 286.8 108.029 286.744 108.173 286.744C108.333 286.744 108.461 286.784 108.557 286.864C108.669 286.944 108.741 287.048 108.773 287.176C108.821 287.288 108.813 287.416 108.749 287.56C108.701 287.688 108.597 287.808 108.437 287.92C107.925 288.336 107.309 288.656 106.589 288.88C105.869 289.088 105.149 289.192 104.429 289.192Z" fill="white"/>
</svg>
